<?xml version="1.0" standalone="no"?>
<!DOCTYPE svg PUBLIC "-//W3C//DTD SVG 20010904//EN"
 "http://www.w3.org/TR/2001/REC-SVG-20010904/DTD/svg10.dtd">
<svg version="1.0" xmlns="http://www.w3.org/2000/svg"
 width="513.000000pt" height="726.000000pt" viewBox="0 0 513.000000 726.000000"
 preserveAspectRatio="xMidYMid meet">

<g transform="translate(0.000000,726.000000) scale(0.100000,-0.100000)"
fill="#000000" stroke="none">
<path d="M1382 7133 c-22 -41 -94 -268 -127 -396 -96 -378 -134 -743 -115
-1122 23 -460 90 -727 240 -951 81 -121 125 -169 198 -218 130 -86 242 -103
444 -67 282 50 386 89 537 201 l81 60 0 510 c0 280 -2 510 -5 510 -11 0 -115
-55 -235 -125 -69 -40 -152 -81 -185 -90 -33 -10 -80 -24 -104 -31 -65 -20
-154 -18 -200 6 -98 49 -160 186 -198 430 -21 142 -24 573 -5 720 28 205 78
393 138 512 l34 68 -245 0 c-223 0 -245 -2 -253 -17z"/>
<path d="M3073 7093 c-33 -76 -68 -215 -90 -360 -14 -96 -18 -182 -18 -453 1
-194 6 -383 13 -450 39 -366 96 -650 190 -950 172 -548 476 -938 841 -1079
193 -75 393 -95 513 -54 79 28 162 79 225 140 193 187 213 614 52 1138 -33
108 -162 441 -262 675 -168 397 -510 1009 -673 1205 -36 44 -101 117 -144 163
l-79 82 -271 0 -271 0 -26 -57z m686 -693 c171 -87 403 -464 497 -808 95 -347
109 -848 29 -1039 -29 -70 -86 -113 -148 -113 -97 0 -277 149 -376 310 -151
247 -231 631 -231 1108 0 447 74 622 229 542z"/>
<path d="M599 6510 c-91 -140 -212 -328 -267 -416 l-102 -161 0 -1151 0 -1151
128 53 c140 59 393 174 405 185 4 4 6 657 5 1452 l-3 1444 -166 -255z"/>
<path d="M2490 2140 l0 -2010 265 0 265 0 -2 1957 -3 1957 -95 23 c-129 31
-387 83 -411 83 -19 0 -19 -24 -19 -2010z"/>
<path d="M1920 4101 c-80 -21 -183 -49 -228 -62 l-84 -24 4 -1436 3 -1435 -73
290 c-99 393 -273 1049 -372 1396 -111 392 -252 863 -260 873 -4 4 -72 -18
-151 -49 -79 -31 -229 -84 -334 -119 l-190 -62 -2 -1124 -3 -1124 132 -155
c72 -85 176 -206 231 -269 l99 -115 -6 925 c-3 508 -10 971 -14 1029 -12 166
-8 159 69 -106 178 -623 525 -1959 610 -2356 l11 -48 354 0 354 0 0 2005 c0
1103 -1 2005 -2 2004 -2 0 -68 -18 -148 -38z"/>
<path d="M3930 3595 c-95 -23 -132 -45 -205 -119 -173 -176 -269 -447 -331
-936 -21 -172 -31 -779 -15 -989 34 -440 127 -781 242 -888 62 -57 173 -69
271 -29 206 84 454 360 800 886 l128 194 0 205 c0 112 -2 202 -4 200 -1 -2
-68 -85 -147 -184 -185 -232 -352 -402 -436 -444 -119 -59 -193 -36 -251 79
-41 82 -59 168 -73 351 -12 159 -6 355 17 525 41 313 140 496 291 540 73 21
192 12 383 -31 80 -18 145 -32 146 -31 4 5 154 386 154 391 0 19 -281 137
-480 202 -295 96 -368 108 -490 78z"/>
</g>
</svg>
